<?xml version="1.0" encoding="UTF-8" standalone="no"?>
<svg
   version="1.0"
   width="1920.000000pt"
   height="432.000000pt"
   viewBox="0 0 1920.000000 432.000000"
   preserveAspectRatio="xMidYMid meet"
   id="svg7"
   sodipodi:docname="arcade.svg"
   inkscape:version="1.3 (0e150ed6c4, 2023-07-21)"
   xmlns:inkscape="http://www.inkscape.org/namespaces/inkscape"
   xmlns:sodipodi="http://sodipodi.sourceforge.net/DTD/sodipodi-0.dtd"
   xmlns="http://www.w3.org/2000/svg"
   xmlns:svg="http://www.w3.org/2000/svg">
  <defs
     id="defs7" />
  <sodipodi:namedview
     id="namedview7"
     pagecolor="#505050"
     bordercolor="#eeeeee"
     borderopacity="1"
     inkscape:showpageshadow="0"
     inkscape:pageopacity="0"
     inkscape:pagecheckerboard="0"
     inkscape:deskcolor="#505050"
     inkscape:document-units="pt"
     inkscape:zoom="0.21992188"
     inkscape:cx="1280"
     inkscape:cy="288.7389"
     inkscape:window-width="1080"
     inkscape:window-height="1897"
     inkscape:window-x="3832"
     inkscape:window-y="-8"
     inkscape:window-maximized="1"
     inkscape:current-layer="g7" />
  <g
     transform="translate(0.000000,432.000000) scale(0.100000,-0.100000)"
     fill="#000000"
     stroke="none"
     id="g7">
    <path
       d="M987 2167 c-367 -1057 -667 -1925 -667 -1929 0 -5 4198 -8 9330 -8 l9330 0 0 1930 0 1930 -8662 0 -8663 0 -668 -1923z m8177 1517 c103 -14 339 -69 399 -93 25 -10 27 -15 27 -63 0 -29 7 -271 15 -538 8 -267 15 -497 15 -512 0 -27 -3 -25 -95 47 -113 88 -202 139 -310 179 -66 23 -101 30 -195 34 -142 5 -205 -7 -313 -60 -197 -98 -317 -294 -317 -518 0 -163 49 -279 170 -401 126 -128 254 -179 447 -179 211 0 391 72 561 225 l52 47 0 -29 c0 -15 -7 -244 -15 -508 -8 -264 -15 -503 -15 -532 l0 -51 -62 -21 c-246 -82 -730 -120 -968 -78 -191 35 -367 98 -523 187 -275 157 -513 430 -631 724 -311 772 31 1658 777 2011 294 140 608 181 981 129z m-5462 -1509 c290 -814 530 -1488 534 -1497 5 -17 -27 -18 -570 -18 l-576 0 -6 28 c-4 15 -26 97 -49 182 l-41 155 -415 3 -416 2 -12 -57 c-7 -32 -27 -115 -43 -185 l-30 -128 -574 0 c-316 0 -574 2 -574 4 0 2 960 2769 1035 2984 4 10 130 12 606 10 l602 -3 529 -1480z m2378 1466 c300 -52 505 -143 667 -294 194 -184 284 -413 284 -727 1 -362 -103 -556 -371 -694 -47 -24 -113 -54 -147 -66 -35 -13 -63 -28 -63 -34 0 -7 22 -29 49 -50 28 -20 66 -55 85 -77 32 -35 696 -1022 696 -1034 0 -3 -280 -5 -623 -5 l-622 0 -183 365 -182 365 0 136 0 136 63 116 62 117 3 146 c4 165 -5 213 -48 259 -17 18 -30 33 -30 35 0 1 21 5 46 9 120 16 193 94 202 214 8 126 -28 200 -123 247 -60 30 -61 30 -270 35 l-210 5 120 65 c199 108 217 158 145 395 -23 77 -48 152 -56 167 -24 46 -81 78 -141 78 -39 0 -602 -117 -940 -195 l-23 -5 0 155 0 156 773 -4 c507 -3 794 -8 837 -16z m6436 -1481 c293 -822 534 -1496 534 -1497 0 -2 -259 -3 -575 -3 l-574 0 -12 43 c-6 23 -28 105 -48 182 l-37 140 -415 3 -415 2 -16 -67 c-9 -38 -28 -121 -43 -185 l-28 -118 -574 0 -574 0 7 23 c6 20 1018 2935 1029 2965 3 10 130 12 606 10 l601 -3 534 -1495z m2297 1471 c681 -108 1106 -424 1276 -948 62 -189 76 -293 76 -553 0 -188 -4 -253 -18 -325 -60 -295 -183 -532 -377 -725 -232 -232 -545 -372 -919 -410 -61 -6 -398 -10 -832 -10 l-729 0 0 1501 0 1501 693 -5 c653 -4 700 -5 830 -26z m3697 -381 l0 -410 -460 0 -460 0 0 -145 0 -145 420 0 420 0 0 -390 0 -390 -420 0 -420 0 0 -145 0 -145 478 -2 477 -3 0 -405 0 -405 -1022 -3 -1023 -2 0 1500 0 1500 1005 0 1005 0 0 -410z m-13052 153 c5 -10 27 -76 48 -147 34 -117 36 -131 23 -154 -9 -17 -60 -51 -145 -96 -149 -80 -164 -91 -164 -118 0 -23 126 -532 142 -571 14 -36 22 -40 163 -72 70 -16 125 -34 133 -43 8 -11 12 -55 12 -136 l0 -119 -62 -116 -63 -116 -5 -525 -5 -525 -533 -3 -532 -2 2 1277 3 1278 460 102 c253 56 472 102 487 102 16 1 31 -6 36 -16z"
       id="path1"
       style="fill:#e9e1d0;fill-opacity:1" />
    <path
       d="M2556 2643 c-3 -10 -46 -207 -96 -438 -50 -231 -93 -428 -96 -437 -5 -17 10 -18 216 -18 206 0 221 1 216 18 -23 76 -149 627 -166 724 -30 175 -28 168 -50 168 -10 0 -21 -8 -24 -17z"
       id="path2"
       style="fill:#e9e1d0;fill-opacity:1" />
    <path
       d="M11366 2643 c-3 -10 -46 -207 -96 -438 -50 -231 -93 -428 -96 -437 -5 -17 10 -18 216 -18 206 0 221 1 216 18 -38 120 -196 837 -196 889 0 2 -9 3 -19 3 -11 0 -22 -8 -25 -17z"
       id="path3"
       style="fill:#e9e1d0;fill-opacity:1" />
    <path
       d="M14380 2140 l0 -583 118 6 c138 7 209 24 312 74 134 65 229 187 259 331 6 29 11 104 11 166 0 372 -191 565 -577 583 l-123 6 0 -583z"
       id="path4"
       style="fill:#e9e1d0;fill-opacity:1" />
    <path
       d="M5075 3271 c-165 -37 -299 -71 -298 -77 1 -5 161 -330 356 -722 l354 -713 52 96 51 95 0 105 c0 93 -2 105 -17 105 -10 0 -63 11 -117 25 -105 26 -144 51 -165 104 -6 14 -42 156 -81 315 l-70 290 22 45 c21 42 33 51 155 116 73 39 136 74 139 78 4 4 -6 52 -22 107 -21 71 -33 100 -44 99 -8 0 -150 -31 -315 -68z"
       id="path5"
       style="fill:#e9e1d0;fill-opacity:1" />
    <path
       d="M4551 2619 l-1 -146 430 -867 c401 -809 431 -866 455 -866 l25 0 0 99 0 98 -454 914 -454 914 -1 -146z"
       id="path6"
       style="fill:#e9e1d0;fill-opacity:1" />
    <path
       d="M4551 1458 l-1 -718 355 0 c195 0 355 3 355 8 0 4 -160 327 -354 717 l-354 710 -1 -717z"
       id="path7"
       style="fill:#e9e1d0;fill-opacity:1" />
  </g>
</svg>
