<?xml version="1.0" encoding="UTF-8"?>
<!DOCTYPE svg PUBLIC "-//W3C//DTD SVG 1.1//EN" "http://www.w3.org/Graphics/SVG/1.1/DTD/svg11.dtd">
<svg xmlns="http://www.w3.org/2000/svg" version="1.1" width="256px" height="256px" style="shape-rendering:geometricPrecision; text-rendering:geometricPrecision; image-rendering:optimizeQuality; fill-rule:evenodd; clip-rule:evenodd" xmlns:xlink="http://www.w3.org/1999/xlink">
<g><path style="opacity:0.374" fill="#fefdfc" d="M 126.5,15.5 C 131.241,15.7793 134.407,18.1127 136,22.5C 143.641,46.4232 151.474,70.2565 159.5,94C 185.5,94.3333 211.5,94.6667 237.5,95C 242.309,95.766 244.976,98.5993 245.5,103.5C 244.818,106.366 243.484,108.866 241.5,111C 220.72,125.446 200.22,140.28 180,155.5C 187.503,180.823 195.337,206.156 203.5,231.5C 201.747,239.366 197.081,241.866 189.5,239C 168.974,223.64 148.307,208.474 127.5,193.5C 107.026,208.14 86.6932,222.973 66.5,238C 58.8906,241.909 53.5572,239.909 50.5,232C 59.2154,206.976 67.5488,181.81 75.5,156.5C 55.4043,140.612 34.7377,125.446 13.5,111C 9.30582,106.827 8.80582,102.327 12,97.5C 13.6477,96.283 15.481,95.4497 17.5,95C 43.5,94.6667 69.5,94.3333 95.5,94C 104.167,68.6667 112.833,43.3333 121.5,18C 123.315,17.2432 124.981,16.4098 126.5,15.5 Z"/></g>
<g><path style="opacity:1" fill="#fbce41" d="M 126.5,27.5 C 127.473,29.9479 127.806,32.6146 127.5,35.5C 127.167,36.8333 126.833,38.1667 126.5,39.5C 124.804,41.129 123.804,40.7957 123.5,38.5C 124.303,34.7612 125.303,31.0946 126.5,27.5 Z"/></g>
<g><path style="opacity:0.999" fill="#fbf3c3" d="M 120.5,47.5 C 120.81,48.7383 121.31,48.7383 122,47.5C 121.261,53.3457 119.595,59.0124 117,64.5C 116.722,63.5842 116.222,62.9175 115.5,62.5C 116.595,57.2159 118.261,52.2159 120.5,47.5 Z"/></g>
<g><path style="opacity:1" fill="#f0e0ad" d="M 127.5,35.5 C 135.262,58.782 143.262,82.1153 151.5,105.5C 152.386,104.675 152.719,103.675 152.5,102.5C 157.07,103.441 161.737,103.774 166.5,103.5C 164.369,104.314 162.036,104.814 159.5,105C 159.833,105.333 160.167,105.667 160.5,106C 166.016,106.173 171.349,106.673 176.5,107.5C 171.5,107.5 166.5,107.5 161.5,107.5C 157.818,107.665 154.152,107.499 150.5,107C 148.793,104.021 147.459,100.854 146.5,97.5C 145.363,93.4214 144.029,89.4214 142.5,85.5C 141.696,82.4214 140.696,79.4214 139.5,76.5C 138.722,71.9905 136.888,67.9905 134,64.5C 128.302,70.2673 121.802,74.9339 114.5,78.5C 114.5,77.8333 114.167,77.5 113.5,77.5C 114.363,75.5786 115.029,73.5786 115.5,71.5C 120.378,61.3553 124.045,50.6887 126.5,39.5C 126.833,38.1667 127.167,36.8333 127.5,35.5 Z"/></g>
<g><path style="opacity:1" fill="#ead187" d="M 123.5,38.5 C 123.804,40.7957 124.804,41.129 126.5,39.5C 124.045,50.6887 120.378,61.3553 115.5,71.5C 115.068,70.2905 114.401,69.2905 113.5,68.5C 114.363,66.5786 115.029,64.5786 115.5,62.5C 116.222,62.9175 116.722,63.5842 117,64.5C 119.595,59.0124 121.261,53.3457 122,47.5C 121.31,48.7383 120.81,48.7383 120.5,47.5C 120.928,44.2154 121.928,41.2154 123.5,38.5 Z"/></g>
<g><path style="opacity:1" fill="#c99b3e" d="M 152.5,102.5 C 152.719,103.675 152.386,104.675 151.5,105.5C 143.262,82.1153 135.262,58.782 127.5,35.5C 127.806,32.6146 127.473,29.9479 126.5,27.5C 126.846,25.2951 127.513,25.1284 128.5,27C 136.809,52.0923 144.809,77.259 152.5,102.5 Z"/></g>
<g><path style="opacity:1" fill="#ead396" d="M 139.5,76.5 C 136.27,80.3258 132.27,83.4925 127.5,86C 126,87.5 124.5,89 123,90.5C 122.667,90.1667 122.333,89.8333 122,89.5C 118.064,92.8559 114.398,95.5226 111,97.5C 110.768,96.2625 110.268,95.2625 109.5,94.5C 111.171,89.1551 112.837,83.8217 114.5,78.5C 121.802,74.9339 128.302,70.2673 134,64.5C 136.888,67.9905 138.722,71.9905 139.5,76.5 Z"/></g>
<g><path style="opacity:1" fill="#e2c784" d="M 139.5,76.5 C 140.696,79.4214 141.696,82.4214 142.5,85.5C 142.637,88.0381 142.637,90.7048 142.5,93.5C 121.703,107.129 101.036,120.962 80.5,135C 78.1159,136.902 75.4492,138.069 72.5,138.5C 68.8098,135.801 65.1431,133.135 61.5,130.5C 62.3324,129.671 61.999,128.838 60.5,128C 62.1261,128.195 63.7928,128.195 65.5,128C 72.5234,122.968 79.5234,117.968 86.5,113C 88.9573,111.438 91.624,110.438 94.5,110C 92.8333,109.667 91.1667,109.333 89.5,109C 94.6835,108.826 99.6835,108.326 104.5,107.5C 106.343,103.316 108.01,98.9822 109.5,94.5C 110.268,95.2625 110.768,96.2625 111,97.5C 114.398,95.5226 118.064,92.8559 122,89.5C 122.333,89.8333 122.667,90.1667 123,90.5C 124.5,89 126,87.5 127.5,86C 132.27,83.4925 136.27,80.3258 139.5,76.5 Z"/></g>
<g><path style="opacity:1" fill="#d4ae58" d="M 113.5,68.5 C 114.401,69.2905 115.068,70.2905 115.5,71.5C 115.029,73.5786 114.363,75.5786 113.5,77.5C 110.969,84.4262 108.636,91.4262 106.5,98.5C 105.167,98.5 104.5,97.8333 104.5,96.5C 107.102,87.0281 110.102,77.6948 113.5,68.5 Z"/></g>
<g><path style="opacity:1" fill="#dcbc74" d="M 142.5,85.5 C 144.029,89.4214 145.363,93.4214 146.5,97.5C 143.98,103.843 139.313,108.01 132.5,110C 117.111,121.351 101.444,132.184 85.5,142.5C 84.5539,142.987 83.5539,143.32 82.5,143.5C 80.2967,142.233 77.9633,141.233 75.5,140.5C 74.2905,140.068 73.2905,139.401 72.5,138.5C 75.4492,138.069 78.1159,136.902 80.5,135C 101.036,120.962 121.703,107.129 142.5,93.5C 142.637,90.7048 142.637,88.0381 142.5,85.5 Z"/></g>
<g><path style="opacity:0.988" fill="#eeda95" d="M 104.5,96.5 C 104.5,97.8333 105.167,98.5 106.5,98.5C 105.601,101.028 104.601,103.528 103.5,106C 98.1771,106.499 92.8437,106.666 87.5,106.5C 88.9516,105.698 90.6183,105.198 92.5,105C 89.9644,104.814 87.631,104.314 85.5,103.5C 91.1667,103.5 96.8333,103.5 102.5,103.5C 102.721,100.933 103.388,98.5994 104.5,96.5 Z"/></g>
<g><path style="opacity:1" fill="#dec074" d="M 44.5,103.5 C 58.1667,103.5 71.8333,103.5 85.5,103.5C 87.631,104.314 89.9644,104.814 92.5,105C 90.6183,105.198 88.9516,105.698 87.5,106.5C 83.1667,106.5 78.8333,106.5 74.5,106.5C 75.9516,105.698 77.6183,105.198 79.5,105C 75.6667,104.833 71.8333,104.667 68,104.5C 63.771,104.51 59.9377,105.177 56.5,106.5C 52.8333,106.5 49.1667,106.5 45.5,106.5C 44.0484,105.698 42.3817,105.198 40.5,105C 42.0581,104.79 43.3915,104.29 44.5,103.5 Z"/></g>
<g><path style="opacity:1" fill="#f1e2ae" d="M 21.5,103.5 C 29.1667,103.5 36.8333,103.5 44.5,103.5C 43.3915,104.29 42.0581,104.79 40.5,105C 42.3817,105.198 44.0484,105.698 45.5,106.5C 39.9738,106.179 34.6405,106.512 29.5,107.5C 26.3181,107.052 23.6514,105.718 21.5,103.5 Z"/></g>
<g><path style="opacity:1" fill="#cfa64f" d="M 74.5,106.5 C 68.5,106.5 62.5,106.5 56.5,106.5C 59.9377,105.177 63.771,104.51 68,104.5C 71.8333,104.667 75.6667,104.833 79.5,105C 77.6183,105.198 75.9516,105.698 74.5,106.5 Z"/></g>
<g><path style="opacity:1" fill="#d8b666" d="M 185.5,103.5 C 195.167,103.5 204.833,103.5 214.5,103.5C 215.167,104.167 215.833,104.833 216.5,105.5C 205.179,106.426 193.846,106.593 182.5,106C 181.833,105.667 181.167,105.333 180.5,105C 182.382,104.802 184.048,104.302 185.5,103.5 Z"/></g>
<g><path style="opacity:1" fill="#f5ecd2" d="M 113.5,77.5 C 114.167,77.5 114.5,77.8333 114.5,78.5C 112.837,83.8217 111.171,89.1551 109.5,94.5C 108.01,98.9822 106.343,103.316 104.5,107.5C 97.8333,107.5 91.1667,107.5 84.5,107.5C 67.4869,107.167 50.4869,107.501 33.5,108.5C 38.5435,112.68 43.8768,116.347 49.5,119.5C 49.9528,120.458 50.6195,121.292 51.5,122C 51.2716,122.399 50.9382,122.565 50.5,122.5C 43.3239,117.745 36.3239,112.745 29.5,107.5C 34.6405,106.512 39.9738,106.179 45.5,106.5C 49.1667,106.5 52.8333,106.5 56.5,106.5C 62.5,106.5 68.5,106.5 74.5,106.5C 78.8333,106.5 83.1667,106.5 87.5,106.5C 92.8437,106.666 98.1771,106.499 103.5,106C 104.601,103.528 105.601,101.028 106.5,98.5C 108.636,91.4262 110.969,84.4262 113.5,77.5 Z"/></g>
<g><path style="opacity:1" fill="#e4cc8f" d="M 166.5,103.5 C 172.833,103.5 179.167,103.5 185.5,103.5C 184.048,104.302 182.382,104.802 180.5,105C 181.167,105.333 181.833,105.667 182.5,106C 193.846,106.593 205.179,106.426 216.5,105.5C 219.118,106.056 221.118,106.723 222.5,107.5C 207.167,107.5 191.833,107.5 176.5,107.5C 171.349,106.673 166.016,106.173 160.5,106C 160.167,105.667 159.833,105.333 159.5,105C 162.036,104.814 164.369,104.314 166.5,103.5 Z"/></g>
<g><path style="opacity:1" fill="#d4ab56" d="M 21.5,103.5 C 23.6514,105.718 26.3181,107.052 29.5,107.5C 36.3239,112.745 43.3239,117.745 50.5,122.5C 53.8333,125.167 57.1667,127.833 60.5,130.5C 59.5,130.833 58.8333,131.5 58.5,132.5C 45.5295,123.009 32.5295,113.509 19.5,104C 20.0944,103.536 20.7611,103.369 21.5,103.5 Z"/></g>
<g><path style="opacity:1" fill="#d6b161" d="M 146.5,97.5 C 147.459,100.854 148.793,104.021 150.5,107C 154.152,107.499 157.818,107.665 161.5,107.5C 158.023,108.323 154.356,108.823 150.5,109C 153.553,109.179 156.553,109.679 159.5,110.5C 153.423,114.867 147.09,118.7 140.5,122C 136.869,125.81 132.869,129.143 128.5,132C 123.254,134.903 118.254,138.236 113.5,142C 107.337,143.582 102.337,146.915 98.5,152C 95.0477,154.443 91.7143,156.277 88.5,157.5C 88.5654,157.062 88.3988,156.728 88,156.5C 84.0796,167.992 79.913,179.325 75.5,190.5C 74.7025,190.043 74.3691,189.376 74.5,188.5C 77.7021,176.693 81.3688,165.026 85.5,153.5C 86.3094,152.531 87.3094,151.698 88.5,151C 85.3158,148.248 81.9825,145.748 78.5,143.5C 77.3065,142.728 76.3065,141.728 75.5,140.5C 77.9633,141.233 80.2967,142.233 82.5,143.5C 83.5539,143.32 84.5539,142.987 85.5,142.5C 101.444,132.184 117.111,121.351 132.5,110C 139.313,108.01 143.98,103.843 146.5,97.5 Z"/></g>
<g><path style="opacity:1" fill="#f1e1aa" d="M 84.5,107.5 C 78.6807,108.328 72.6807,108.828 66.5,109C 67.5,109.333 68.5,109.667 69.5,110C 63.4984,112.999 57.8317,116.499 52.5,120.5C 51.5832,119.873 50.5832,119.539 49.5,119.5C 43.8768,116.347 38.5435,112.68 33.5,108.5C 50.4869,107.501 67.4869,107.167 84.5,107.5 Z"/></g>
<g><path style="opacity:1" fill="#ead396" d="M 84.5,107.5 C 91.1667,107.5 97.8333,107.5 104.5,107.5C 99.6835,108.326 94.6835,108.826 89.5,109C 91.1667,109.333 92.8333,109.667 94.5,110C 91.624,110.438 88.9573,111.438 86.5,113C 79.5234,117.968 72.5234,122.968 65.5,128C 63.7928,128.195 62.1261,128.195 60.5,128C 61.999,128.838 62.3324,129.671 61.5,130.5C 61.1667,130.5 60.8333,130.5 60.5,130.5C 57.1667,127.833 53.8333,125.167 50.5,122.5C 50.9382,122.565 51.2716,122.399 51.5,122C 50.6195,121.292 49.9528,120.458 49.5,119.5C 50.5832,119.539 51.5832,119.873 52.5,120.5C 57.8317,116.499 63.4984,112.999 69.5,110C 68.5,109.667 67.5,109.333 66.5,109C 72.6807,108.828 78.6807,108.328 84.5,107.5 Z"/></g>
<g><path style="opacity:1" fill="#cba047" d="M 220.5,109.5 C 219.833,109.833 219.167,110.167 218.5,110.5C 212.582,109.379 206.582,109.212 200.5,110C 167.136,133.024 132.469,156.358 96.5,180C 95.8095,181.067 95.3095,182.234 95,183.5C 94.6667,182.833 94.3333,182.167 94,181.5C 89.0083,184.331 84.8416,187.998 81.5,192.5C 80.8076,191.975 80.3076,191.308 80,190.5C 79.3333,191.833 78.6667,193.167 78,194.5C 77.5357,193.906 77.369,193.239 77.5,192.5C 81.1599,181.176 84.8265,169.843 88.5,158.5C 89.1614,159.718 89.8281,161.051 90.5,162.5C 115.97,145.501 140.97,128.668 165.5,112C 173.348,110.403 173.348,109.403 165.5,109C 184.005,108.171 202.338,108.338 220.5,109.5 Z"/></g>
<g><path style="opacity:1" fill="#cfa64d" d="M 218.5,110.5 C 201.785,123.213 184.785,135.547 167.5,147.5C 166.577,146.697 165.577,146.53 164.5,147C 134.251,168.257 103.751,189.09 73,209.5C 72.51,208.207 72.3433,206.873 72.5,205.5C 73.9222,201.003 75.5889,196.67 77.5,192.5C 77.369,193.239 77.5357,193.906 78,194.5C 78.6667,193.167 79.3333,191.833 80,190.5C 80.3076,191.308 80.8076,191.975 81.5,192.5C 84.8416,187.998 89.0083,184.331 94,181.5C 94.3333,182.167 94.6667,182.833 95,183.5C 95.3095,182.234 95.8095,181.067 96.5,180C 132.469,156.358 167.136,133.024 200.5,110C 206.582,109.212 212.582,109.379 218.5,110.5 Z"/></g>
<g><path style="opacity:1" fill="#d1a954" d="M 161.5,107.5 C 166.5,107.5 171.5,107.5 176.5,107.5C 191.833,107.5 207.167,107.5 222.5,107.5C 222.167,108.5 221.5,109.167 220.5,109.5C 202.338,108.338 184.005,108.171 165.5,109C 173.348,109.403 173.348,110.403 165.5,112C 140.97,128.668 115.97,145.501 90.5,162.5C 89.8281,161.051 89.1614,159.718 88.5,158.5C 88.5,158.167 88.5,157.833 88.5,157.5C 91.7143,156.277 95.0477,154.443 98.5,152C 102.337,146.915 107.337,143.582 113.5,142C 118.254,138.236 123.254,134.903 128.5,132C 132.869,129.143 136.869,125.81 140.5,122C 147.09,118.7 153.423,114.867 159.5,110.5C 156.553,109.679 153.553,109.179 150.5,109C 154.356,108.823 158.023,108.323 161.5,107.5 Z"/></g>
<g><path style="opacity:1" fill="#ac7335" d="M 233.5,103.5 C 235.379,103.393 235.712,103.893 234.5,105C 223.471,112.843 212.471,120.676 201.5,128.5C 201.062,128.565 200.728,128.399 200.5,128C 202.063,127.241 203.063,126.074 203.5,124.5C 210.068,118.537 217.068,113.037 224.5,108C 227.508,106.348 230.508,104.848 233.5,103.5 Z"/></g>
<g><path style="opacity:1" fill="#f0ca5c" d="M 60.5,130.5 C 60.8333,130.5 61.1667,130.5 61.5,130.5C 65.1431,133.135 68.8098,135.801 72.5,138.5C 73.2905,139.401 74.2905,140.068 75.5,140.5C 76.3065,141.728 77.3065,142.728 78.5,143.5C 78.0618,143.435 77.7284,143.601 77.5,144C 78.7101,145.039 79.7101,146.206 80.5,147.5C 72.8488,143.004 65.5155,138.004 58.5,132.5C 58.8333,131.5 59.5,130.833 60.5,130.5 Z"/></g>
<g><path style="opacity:1" fill="#c28337" d="M 203.5,124.5 C 203.063,126.074 202.063,127.241 200.5,128C 200.728,128.399 201.062,128.565 201.5,128.5C 190.833,136.5 180.167,144.5 169.5,152.5C 168.29,152.068 167.29,151.401 166.5,150.5C 178.687,141.578 191.021,132.911 203.5,124.5 Z"/></g>
<g><path style="opacity:1" fill="#f3d98b" d="M 78.5,143.5 C 81.9825,145.748 85.3158,148.248 88.5,151C 87.3094,151.698 86.3094,152.531 85.5,153.5C 83.8861,151.544 82.2194,149.544 80.5,147.5C 79.7101,146.206 78.7101,145.039 77.5,144C 77.7284,143.601 78.0618,143.435 78.5,143.5 Z"/></g>
<g><path style="opacity:1" fill="#d4ae57" d="M 167.5,147.5 C 166.286,148.626 165.286,149.959 164.5,151.5C 166.174,157.518 167.84,163.518 169.5,169.5C 169.565,169.938 169.399,170.272 169,170.5C 168.333,169.167 167.667,167.833 167,166.5C 162.594,170.288 157.761,173.455 152.5,176C 151.167,176.667 151.167,177.333 152.5,178C 151.551,178.617 150.718,178.451 150,177.5C 148.667,179.5 147,181.167 145,182.5C 144.667,182.167 144.333,181.833 144,181.5C 142.829,182.893 141.329,183.727 139.5,184C 140.328,184.915 141.328,185.581 142.5,186C 142.272,186.399 141.938,186.565 141.5,186.5C 139.938,186.267 138.605,185.6 137.5,184.5C 134.196,182.176 130.862,179.843 127.5,177.5C 124.407,179.034 121.74,181.034 119.5,183.5C 110.875,188.821 102.542,194.655 94.5,201C 94.7284,201.399 95.0618,201.565 95.5,201.5C 88.1386,207.521 80.4719,213.187 72.5,218.5C 70.9468,220.385 68.9468,221.385 66.5,221.5C 68.2339,217.298 69.5672,212.965 70.5,208.5C 71.1667,207.5 71.8333,206.5 72.5,205.5C 72.3433,206.873 72.51,208.207 73,209.5C 103.751,189.09 134.251,168.257 164.5,147C 165.577,146.53 166.577,146.697 167.5,147.5 Z"/></g>
<g><path style="opacity:1" fill="#ead78f" d="M 214.5,103.5 C 220.833,103.5 227.167,103.5 233.5,103.5C 230.508,104.848 227.508,106.348 224.5,108C 217.068,113.037 210.068,118.537 203.5,124.5C 191.021,132.911 178.687,141.578 166.5,150.5C 165.957,150.56 165.624,150.893 165.5,151.5C 168.333,160.008 171.333,168.341 174.5,176.5C 174.5,177.5 174.5,178.5 174.5,179.5C 174.631,180.239 174.464,180.906 174,181.5C 173.768,180.263 173.268,179.263 172.5,178.5C 172.072,175.215 171.072,172.215 169.5,169.5C 167.84,163.518 166.174,157.518 164.5,151.5C 165.286,149.959 166.286,148.626 167.5,147.5C 184.785,135.547 201.785,123.213 218.5,110.5C 219.167,110.167 219.833,109.833 220.5,109.5C 221.5,109.167 222.167,108.5 222.5,107.5C 221.118,106.723 219.118,106.056 216.5,105.5C 215.833,104.833 215.167,104.167 214.5,103.5 Z"/></g>
<g><path style="opacity:1" fill="#ddac38" d="M 166.5,150.5 C 167.29,151.401 168.29,152.068 169.5,152.5C 171.5,159.499 173.5,166.499 175.5,173.5C 174.596,174.209 174.263,175.209 174.5,176.5C 171.333,168.341 168.333,160.008 165.5,151.5C 165.624,150.893 165.957,150.56 166.5,150.5 Z"/></g>
<g><path style="opacity:1" fill="#dbbb6a" d="M 169.5,169.5 C 171.072,172.215 172.072,175.215 172.5,178.5C 166.399,183.491 159.899,188.158 153,192.5C 152.667,192.167 152.333,191.833 152,191.5C 152.077,192.738 151.911,193.738 151.5,194.5C 147.835,192.159 144.501,189.493 141.5,186.5C 141.938,186.565 142.272,186.399 142.5,186C 141.328,185.581 140.328,184.915 139.5,184C 141.329,183.727 142.829,182.893 144,181.5C 144.333,181.833 144.667,182.167 145,182.5C 147,181.167 148.667,179.5 150,177.5C 150.718,178.451 151.551,178.617 152.5,178C 151.167,177.333 151.167,176.667 152.5,176C 157.761,173.455 162.594,170.288 167,166.5C 167.667,167.833 168.333,169.167 169,170.5C 169.399,170.272 169.565,169.938 169.5,169.5 Z"/></g>
<g><path style="opacity:1" fill="#efe8c1" d="M 137.5,184.5 C 137.5,184.833 137.5,185.167 137.5,185.5C 134.12,183.39 130.62,181.39 127,179.5C 124.574,181.295 122.074,182.962 119.5,184.5C 119.5,184.167 119.5,183.833 119.5,183.5C 121.74,181.034 124.407,179.034 127.5,177.5C 130.862,179.843 134.196,182.176 137.5,184.5 Z"/></g>
<g><path style="opacity:1" fill="#e3c679" d="M 172.5,178.5 C 173.268,179.263 173.768,180.263 174,181.5C 174.464,180.906 174.631,180.239 174.5,179.5C 177.28,186.186 179.28,193.186 180.5,200.5C 179.531,198.337 178.698,196.004 178,193.5C 177.798,195.256 177.298,196.922 176.5,198.5C 172.571,200.113 169.238,202.446 166.5,205.5C 164.784,203.975 162.784,202.975 160.5,202.5C 152.528,197.187 144.861,191.521 137.5,185.5C 137.5,185.167 137.5,184.833 137.5,184.5C 138.605,185.6 139.938,186.267 141.5,186.5C 144.501,189.493 147.835,192.159 151.5,194.5C 151.911,193.738 152.077,192.738 152,191.5C 152.333,191.833 152.667,192.167 153,192.5C 159.899,188.158 166.399,183.491 172.5,178.5 Z"/></g>
<g><path style="opacity:1" fill="#906330" d="M 137.5,185.5 C 144.861,191.521 152.528,197.187 160.5,202.5C 160.953,203.458 161.619,204.292 162.5,205C 161.584,205.278 160.918,205.778 160.5,206.5C 149.518,198.525 138.518,190.525 127.5,182.5C 121.092,187.581 114.425,192.248 107.5,196.5C 106.833,196.167 106.167,195.833 105.5,195.5C 110.128,191.844 114.794,188.178 119.5,184.5C 122.074,182.962 124.574,181.295 127,179.5C 130.62,181.39 134.12,183.39 137.5,185.5 Z"/></g>
<g><path style="opacity:1" fill="#f2e19f" d="M 119.5,183.5 C 119.5,183.833 119.5,184.167 119.5,184.5C 114.794,188.178 110.128,191.844 105.5,195.5C 101.922,197.075 98.5886,199.075 95.5,201.5C 95.0618,201.565 94.7284,201.399 94.5,201C 102.542,194.655 110.875,188.821 119.5,183.5 Z"/></g>
<g><path style="opacity:1" fill="#eeda9c" d="M 88.5,157.5 C 88.5,157.833 88.5,158.167 88.5,158.5C 84.8265,169.843 81.1599,181.176 77.5,192.5C 75.5889,196.67 73.9222,201.003 72.5,205.5C 71.8333,206.5 71.1667,207.5 70.5,208.5C 70.2792,205.903 69.7792,205.903 69,208.5C 68.6012,208.272 68.4346,207.938 68.5,207.5C 69.7446,200.832 71.7446,194.499 74.5,188.5C 74.3691,189.376 74.7025,190.043 75.5,190.5C 79.913,179.325 84.0796,167.992 88,156.5C 88.3988,156.728 88.5654,157.062 88.5,157.5 Z"/></g>
<g><path style="opacity:1" fill="#ce9f3e" d="M 175.5,173.5 C 180.406,186.888 184.739,200.554 188.5,214.5C 188.565,214.938 188.399,215.272 188,215.5C 187.722,214.584 187.222,213.918 186.5,213.5C 185.833,212.833 185.167,212.167 184.5,211.5C 182.923,208.016 181.59,204.349 180.5,200.5C 179.28,193.186 177.28,186.186 174.5,179.5C 174.5,178.5 174.5,177.5 174.5,176.5C 174.263,175.209 174.596,174.209 175.5,173.5 Z"/></g>
<g><path style="opacity:1" fill="#ebd48b" d="M 180.5,200.5 C 181.59,204.349 182.923,208.016 184.5,211.5C 184.466,214.199 185.133,216.699 186.5,219C 186.167,219.167 185.833,219.333 185.5,219.5C 181.736,216.389 177.736,213.723 173.5,211.5C 171.393,209.273 169.06,207.273 166.5,205.5C 169.238,202.446 172.571,200.113 176.5,198.5C 177.298,196.922 177.798,195.256 178,193.5C 178.698,196.004 179.531,198.337 180.5,200.5 Z"/></g>
<g><path style="opacity:1" fill="#ae7836" d="M 105.5,195.5 C 106.167,195.833 106.833,196.167 107.5,196.5C 97.3831,204.399 87.0498,212.065 76.5,219.5C 75.1667,219.167 73.8333,218.833 72.5,218.5C 80.4719,213.187 88.1386,207.521 95.5,201.5C 98.5886,199.075 101.922,197.075 105.5,195.5 Z"/></g>
<g><path style="opacity:1" fill="#fcf4c4" d="M 70.5,208.5 C 69.5672,212.965 68.2339,217.298 66.5,221.5C 65.5667,224.37 63.9,226.704 61.5,228.5C 63.2556,221.233 65.5889,214.233 68.5,207.5C 68.4346,207.938 68.6012,208.272 69,208.5C 69.7792,205.903 70.2792,205.903 70.5,208.5 Z"/></g>
<g><path style="opacity:1" fill="#ca8a3d" d="M 160.5,202.5 C 162.784,202.975 164.784,203.975 166.5,205.5C 169.06,207.273 171.393,209.273 173.5,211.5C 175.686,213.634 178.019,215.801 180.5,218C 178.953,218.333 177.62,217.833 176.5,216.5C 175.893,216.624 175.56,216.957 175.5,217.5C 170.322,214.078 165.322,210.411 160.5,206.5C 160.918,205.778 161.584,205.278 162.5,205C 161.619,204.292 160.953,203.458 160.5,202.5 Z"/></g>
<g><path style="opacity:1" fill="#d7b462" d="M 186.5,213.5 C 187.222,213.918 187.722,214.584 188,215.5C 188.399,215.272 188.565,214.938 188.5,214.5C 190.541,218.952 192.208,223.618 193.5,228.5C 188.774,224.711 186.441,219.711 186.5,213.5 Z"/></g>
<g><path style="opacity:1" fill="#db9338" d="M 173.5,211.5 C 177.736,213.723 181.736,216.389 185.5,219.5C 185.833,219.333 186.167,219.167 186.5,219C 185.133,216.699 184.466,214.199 184.5,211.5C 185.167,212.167 185.833,212.833 186.5,213.5C 186.441,219.711 188.774,224.711 193.5,228.5C 193.631,229.239 193.464,229.906 193,230.5C 187.226,226.036 181.393,221.702 175.5,217.5C 175.56,216.957 175.893,216.624 176.5,216.5C 177.62,217.833 178.953,218.333 180.5,218C 178.019,215.801 175.686,213.634 173.5,211.5 Z"/></g>
<g><path style="opacity:1" fill="#cd8b39" d="M 72.5,218.5 C 73.8333,218.833 75.1667,219.167 76.5,219.5C 71.6842,222.748 67.0175,226.248 62.5,230C 60.3646,230.605 60.0313,230.105 61.5,228.5C 63.9,226.704 65.5667,224.37 66.5,221.5C 68.9468,221.385 70.9468,220.385 72.5,218.5 Z"/></g>
</svg>
